<svg xmlns="http://www.w3.org/2000/svg" width="190.21001" height="171.85699" viewBox="0 0 190.21001 171.85699"><defs><style>.a,.b{stroke:#000;}.b{fill:#fff;}.c{fill:#fd1b14;stroke:#222221;stroke-width:2.559px;}.d{fill:#0077c8;}</style></defs><path class="a" d="M144.768,32.309c10.507,19.455,6.977,47.118-7.716,63.535a57.883,57.883,0,0,1-60.42,18.223c-19.78-5.171-37.428-25.283-40.383-45.308C32.472,45.032,41.502,22.294,61.532,8.996,76.225-.441,98.553-3.235,115.052,4.399,127.447,9.488,138.939,19.749,144.768,32.309Z"/><path class="b" d="M108.157,3.086a11.114,11.114,0,0,0-1.97,4.1l.328.328c1.4-.821,1.231-2.955,2.791-3.94a52.271,52.271,0,0,1,29.223,20.859c-2.134,0-4.761-.739-7.059,0,1.313,2.216,4.6.493,6.567,1.478,3.694.657,4.351,4.925,6.239,7.552,2.463,5.664,4.6,11.41,5.089,17.895-6.321-.328-11.246,3.776-16.253,7.224-1.806-2.3-3.612-5.171-5.418-7.716-2.545-3.612-6.321-5.91-9.686-8.373.328-1.4,1.313-2.955.657-4.269-.9,1.231-1.313,3.037-1.97,4.6,6.485,3.694,11.9,10.671,15.761,16.91a25.80893,25.80893,0,0,1-3.119,18.059,22.716,22.716,0,0,1,1.806,14.611c-5.254,7.059-12.724,12.641-20.029,16.582-.082.9.657,1.888.657,2.955A42.6,42.6,0,0,1,97.16,115.06c-.246-1.231.082-3.119-1.478-3.283-.328,1.067.575,2.052.493,3.283-9.522.985-18.634-1.313-26.76-4.761a56.91057,56.91057,0,0,0,1.313-5.746c-.082-.246-.493-.246-.657,0-.821,1.56-.985,3.448-1.97,4.925A50.24492,50.24492,0,0,1,49.054,94.203c1.888-5.336,7.06-9.03,11.164-12.806,2.463,2.955,5.582,6.731,9.03,9.03.164-.328.493-.575.328-.985-3.119-2.627-6.649-5.171-8.209-8.865a67.133,67.133,0,0,1,4.761-11.164c-1.067-4.6-3.448-8.619-5.418-12.806,2.134-3.283,4.6-6.321,6.4-9.686l-.328-.328c-2.627,2.545-4.433,5.746-6.567,8.537l-15.432.493c-2.709-10.671.657-21.671,7.224-29.88.739-.328,1.067.493,1.478.821,1.313-.493.246-1.478,0-2.134,2.955-3.2,6.731-5.089,10.015-7.716a8.026,8.026,0,0,1-.821-7.224c5.173-2.957,10.345-5.665,16.255-6.568a15.067,15.067,0,0,0,1.478,4.6c2.216-.985-.575-2.955-.164-4.761l.328-.493A60.14894,60.14894,0,0,1,108.157,3.086Z"/><path class="b" d="M61.203,10.802c-.328,1.97.493,3.858.985,5.746C49.547,22.787,42.651,36.085,42.815,50.04l.821,5.91a34.3878,34.3878,0,0,0-6.4,9.194h-.493C34.278,43.308,43.062,23.202,60.71,10.802Z"/><path class="b" d="M149.856,58.74A57.16,57.16,0,0,1,138.2,92.888c-1.724-.328-4.351.082-5.91-.985.493-4.761.164-9.933-1.642-14.119,3.119-5.414,3.694-12.314,3.284-18.714,4.925-2.873,9.522-7.388,15.6-6.239Z"/><path class="b" d="M59.562,56.442c1.888,3.94,3.53,7.962,5.582,11.821-.985,3.94-3.776,7.142-4.6,11.164a93.9398,93.9398,0,0,0-9.358,8.7c-8.209-7.142-11.41-17.895-9.358-28.566,2.216-5.336,8.127-2.216,12.149-3.283Z"/><path class="b" d="M40.188,62.517c-.328,10.261,2.545,19.947,10.343,26.76l-1.806,3.94h-.656c-5.746-7.88-9.686-16.417-11-26.1l2.627-4.6h.492Z"/><path class="b" d="M137.215,93.874c-6.485,8.373-15.268,14.858-24.79,17.895a10.02528,10.02528,0,0,1-.493-2.134,71.48711,71.48711,0,0,0,20.029-16.418A27.0492,27.0492,0,0,1,137.215,93.874Z"/><path class="c" d="M1.279,88.62H14.331v31.029H27.218v6.157H1.279Z"/><path class="c" d="M42.569,95.515a2.965,2.965,0,0,0-.575,1.97v6.567H52.255v6.157H41.996v15.6h-13.3V96.829a13.22572,13.22572,0,0,1,.328-3.2,8.4997,8.4997,0,0,1,1.149-2.627,6.16387,6.16387,0,0,1,2.052-1.806,7.02,7.02,0,0,1,3.119-.657H54.061v6.157H44.128A2.256,2.256,0,0,0,42.569,95.515Z"/><path class="c" d="M78.359,109.798H69.412V125.72H56.524V88.62H69.412v14.858h8.947V88.62H91.165v37.185H78.359Z"/><path class="c" d="M151.498,123.261c-1.313,1.724-3.283,2.545-5.992,2.545H125.395a9.37032,9.37032,0,0,1-3.53-.575,7.114,7.114,0,0,1-2.545-1.888c-1.313-1.642-1.97-4.515-1.97-8.455V99.62q0-5.787,1.97-8.373a7.256,7.256,0,0,1,5.992-2.627h20.193a7.256,7.256,0,0,1,5.992,2.627c1.313,1.724,2.052,4.515,2.052,8.373v15.268C153.55,118.746,152.812,121.537,151.498,123.261ZM138.036,94.777h-5.254a2.126,2.126,0,0,0-2.381,2.381v20.276a2.126,2.126,0,0,0,2.381,2.381h5.254a2.126,2.126,0,0,0,2.381-2.381V97.157C140.416,95.52,139.678,94.777,138.036,94.777Z"/><path class="c" d="M186.878,123.097a6.584,6.584,0,0,1-5.828,2.709H163.406V119.65H174.57c1.313,0,1.888-.821,1.888-2.463v-3.366H163.73a6.459,6.459,0,0,1-5.336-2.38,10.167,10.167,0,0,1-1.888-6.485V97.322a10.78606,10.78606,0,0,1,1.724-6.567q1.724-2.216,5.664-2.216h17.649a7.03388,7.03388,0,0,1,3.366.739,7.815,7.815,0,0,1,2.3,2.052,9.65954,9.65954,0,0,1,1.313,3.119,20.00032,20.00032,0,0,1,.41,3.94v17.649C188.766,118.992,188.192,121.373,186.878,123.097ZM175.796,95.269a2.786,2.786,0,0,0-2.052-.657h-3.038a2.786,2.786,0,0,0-2.052.657,3.02193,3.02193,0,0,0-.575,2.134v7.388a3.272,3.272,0,0,0,.575,1.97,1.778,1.778,0,0,0,1.56.821h6.074V97.403A2.59,2.59,0,0,0,175.796,95.269Z"/><path class="d" d="M3.906,143.947H9.981v2.463H.951V131.716H3.906Z"/><path class="d" d="M14.249,134.343H11.458v-2.545h2.791Zm0,12.067H11.458V135.898h2.791Z"/><path class="d" d="M19.092,146.41H16.301V131.716h2.791Z"/><path class="d" d="M23.935,146.41H21.144V131.716h2.791Z"/><path class="d" d="M28.532,141.813c-.082,1.313.657,2.791,2.134,2.791a1.853,1.853,0,0,0,1.724-1.724l2.545.493a4.753,4.753,0,0,1-4.6,3.283c-3.037,0-4.6-2.709-4.6-5.5s1.56-5.5,4.6-5.5c2.627,0,4.679,1.231,4.6,6.157Zm3.694-1.806c0-1.149-.493-2.381-1.806-2.381-1.231,0-1.806,1.231-1.806,2.381Z"/><path class="d" d="M39.45,136.97a5.06206,5.06206,0,0,1,3.119-1.313c1.149,0,2.791.657,2.791,3.284v7.47H42.569V140.09c0-.821.082-2.216-1.149-2.216a2.74406,2.74406,0,0,0-1.97,1.149v7.388H36.659V131.716H39.45Z"/><path class="d" d="M53.405,145.424a4.454,4.454,0,0,1-2.955,1.149,3.107,3.107,0,0,1-3.279-2.92492q-.00554-.09693-.005-.19409c0-2.955,3.94-3.612,6.157-3.858.164-1.478-.328-1.97-1.313-1.97a1.438,1.438,0,0,0-1.631,1.21464q-.00717.049-.011.09836l-2.709-.41c.657-2.216,2.134-2.955,4.351-2.955,2.873,0,4.1,1.4,4.1,3.366v5.254a4.269,4.269,0,0,0,.41,2.216H53.815Zm-.164-3.858c-1.149.246-3.448.328-3.448,1.888,0,.657.328,1.149.985,1.149a2.937,2.937,0,0,0,2.463-1.4Z"/><path class="d" d="M60.957,136.969a5.063,5.063,0,0,1,3.119-1.313,2.829,2.829,0,0,1,2.709,1.478,5.0581,5.0581,0,0,1,3.283-1.478,2.846,2.846,0,0,1,2.955,3.119v7.634h-2.79v-6.653c0-.821.082-1.888-1.149-1.888a2.76,2.76,0,0,0-2.134,1.231v7.306H64.158v-6.649c0-.821.082-1.888-1.149-1.888a2.76,2.76,0,0,0-2.134,1.231v7.306H58.084V135.902h2.873Z"/><path class="d" d="M77.784,136.969a5.063,5.063,0,0,1,3.119-1.313,2.829,2.829,0,0,1,2.709,1.478,5.0581,5.0581,0,0,1,3.283-1.478,2.846,2.846,0,0,1,2.955,3.119v7.634H87.059v-6.653c0-.821.082-1.888-1.149-1.888a2.76,2.76,0,0,0-2.134,1.231v7.306H80.985v-6.649c0-.821.082-1.888-1.149-1.888a2.76,2.76,0,0,0-2.134,1.231v7.306H74.911V135.902h2.791v1.067Z"/><path class="d" d="M94.284,141.813c-.082,1.313.657,2.791,2.134,2.791a1.853,1.853,0,0,0,1.724-1.724l2.545.493a4.753,4.753,0,0,1-4.6,3.283c-3.037,0-4.6-2.709-4.6-5.5s1.56-5.5,4.6-5.5c2.627,0,4.679,1.231,4.6,6.157Zm3.776-1.806c0-1.149-.493-2.381-1.806-2.381-1.231,0-1.806,1.231-1.806,2.381Z"/><path class="d" d="M105.283,137.708c1.067-1.231,1.97-2.052,3.2-2.052h.493v2.791a2.53107,2.53107,0,0,0-.821-.082,3.185,3.185,0,0,0-2.959,3.396l.004.052v4.6h-2.79V135.902h2.791v1.806Z"/><path class="d" d="M125.313,134.261h-6.157v3.53h4.761v2.463h-4.761v6.157h-2.955V131.716h9.112Z"/><path class="d" d="M132.783,145.424a4.454,4.454,0,0,1-2.955,1.149,3.107,3.107,0,0,1-3.27806-2.926q-.00546-.09641-.00494-.193c0-2.955,3.94-3.612,6.157-3.858.164-1.478-.328-1.97-1.313-1.97a1.438,1.438,0,0,0-1.631,1.21464q-.00716.049-.01095.09836l-2.709-.41c.657-2.216,2.134-2.955,4.351-2.955,2.873,0,4.1,1.4,4.1,3.366v5.254a4.26928,4.26928,0,0,0,.41,2.216H133.19Zm-.082-3.858c-1.149.246-3.448.328-3.448,1.888,0,.657.328,1.149.985,1.149a2.937,2.937,0,0,0,2.463-1.4Z"/><path class="d" d="M143.619,145.424a4.454,4.454,0,0,1-2.955,1.149,3.107,3.107,0,0,1-3.27806-2.926q-.00547-.09641-.00494-.193c0-2.955,3.94-3.612,6.157-3.858.164-1.478-.328-1.97-1.313-1.97a1.438,1.438,0,0,0-1.631,1.21464q-.00717.049-.011.09836l-2.709-.41c.657-2.216,2.134-2.955,4.351-2.955,2.873,0,4.1,1.4,4.1,3.366v5.254a4.26907,4.26907,0,0,0,.41,2.216h-2.709Zm-.164-3.858c-1.149.246-3.448.328-3.448,1.888,0,.657.328,1.149.985,1.149a2.937,2.937,0,0,0,2.463-1.4Z"/><path class="d" d="M148.379,131.716h2.791v5.171a3.95991,3.95991,0,0,1,2.627-1.231c1.56,0,3.858,1.313,3.858,5.254,0,4.433-1.97,5.746-4.1,5.746a3.546,3.546,0,0,1-2.709-1.149l-.246.9h-2.221Zm2.791,11.574a2.2,2.2,0,0,0,1.806,1.231c1.642,0,1.888-2.052,1.888-3.366,0-1.149-.328-3.119-1.888-3.119a2.585,2.585,0,0,0-1.888,1.149v4.1Z"/><path class="d" d="M161.923,141.813c-.082,1.313.657,2.791,2.134,2.791a1.853,1.853,0,0,0,1.724-1.724l2.545.493a4.753,4.753,0,0,1-4.6,3.283c-3.037,0-4.6-2.709-4.6-5.5s1.56-5.5,4.6-5.5c2.627,0,4.679,1.231,4.6,6.157Zm3.694-1.806c0-1.149-.493-2.381-1.806-2.381-1.231,0-1.806,1.231-1.806,2.381Z"/><path class="d" d="M172.841,137.708c1.067-1.231,1.97-2.052,3.2-2.052h.493v2.791a2.53107,2.53107,0,0,0-.821-.082,3.185,3.185,0,0,0-2.959,3.396l.004.052v4.6h-2.626V135.902h2.791v1.806Z"/><path class="d" d="M180.722,142.962c-.328,0-.821.164-.821.657,0,1.4,7.306-.985,7.306,3.119,0,1.56-1.067,3.2-5.254,3.2-3.612,0-4.843-1.313-4.843-2.627,0-.821.492-1.231,1.149-1.642a1.561,1.561,0,0,1-.821-1.313c0-1.067.575-1.56,1.4-2.134a4.105,4.105,0,0,1-1.313-2.873c0-2.3,1.97-3.694,4.269-3.694a5.0921,5.0921,0,0,1,2.627.739,2.75493,2.75493,0,0,1,1.888-.9,2.792,2.792,0,0,1,.821.082v1.97a2.9104,2.9104,0,0,0-.9-.246,1.146,1.146,0,0,0-.739.246,3.60711,3.60711,0,0,1,.575,1.806c0,2.3-1.97,3.694-4.269,3.694Zm-.9,3.448a.731.731,0,0,0-.41.657c0,.985,1.97,1.067,2.627,1.067.493,0,2.955-.082,2.955-.9,0-.575-.41-.493-2.052-.575Zm1.888-5.254c1.149,0,1.478-.985,1.478-1.97s-.493-1.806-1.478-1.806c-1.149,0-1.56.985-1.56,1.97C180.229,140.335,180.64,141.156,181.71,141.156Z"/><path class="d" d="M36.988,162.498v-5.91h4.1v15.186h-4.1v-6.649H30.17v6.649h-4.1V156.588h4.1v5.91Z"/><path class="d" d="M59.561,171.775H55.375l-1.313-3.776H47.987l-1.313,3.776H42.487l5.746-15.186h5.582Zm-8.619-20.358c1.724,0,3.119,1.067,3.119,2.3s-1.4,2.3-3.119,2.3-3.119-.985-3.119-2.3C47.905,152.484,49.3,151.417,50.942,151.417Zm.082,7.8h-.082l-2.216,6.4h4.433Zm-.082-4.6c.657,0,1.231-.41,1.231-.9s-.575-.9-1.231-.9-1.231.41-1.231.9S50.287,154.617,50.942,154.617Z"/><path class="d" d="M66.866,156.588l6.157,10.015h.082V156.588h4.1v15.186H72.777l-7.8-12.231h-.085v12.231h-4.1V156.588Z"/><path class="d" d="M85.171,156.588c7.88,0,10.671,3.283,10.671,7.634,0,4.269-3.037,7.634-9.194,7.634H80.164V156.67h5.007Zm1.067,12.559c3.283,0,5.254-1.56,5.254-5.336,0-3.2-1.888-4.679-5.746-4.679h-1.56v10.015Z"/><path class="d" d="M98.224,171.774V156.588h5.91c6.649,0,8.373,1.724,8.373,4.186,0,1.4-.9,2.463-2.627,3.119,1.888.657,3.037,1.97,3.037,3.53,0,2.627-2.873,4.351-6.649,4.351Zm4.186-9.03c3.037,0,5.91.246,5.91-1.806,0-2.134-3.037-1.97-5.91-1.97Zm2.627,6.649c1.231,0,3.694.082,3.694-2.216,0-2.052-2.3-2.38-6.321-2.134v4.351Z"/><path class="d" d="M131.059,171.774h-4.186l-1.313-3.776h-6.075l-1.313,3.776h-4.187l5.746-15.186h5.582Zm-8.619-12.559h-.082l-2.216,6.4h4.433Z"/><path class="d" d="M136.39,169.147h8.619v2.545H132.29V156.506h4.1Z"/><path class="d" d="M151.166,169.147h8.619v2.545H147.066V156.506h4.1Z"/><path class="a" d="M82.627,21.72c1.724-.821.985,1.313,2.3,1.4,3.2-.575,6.485-.246,8.865,1.642,2.873-2.381,2.627-10.425,8.209-7.8L114.56,29.768c.821.821.575,2.381.246,3.283-3.2,3.2-7.388,5.007-11.164,7.552,1.56,3.694,8.291,2.052,6.4,8.045-1.231,1.313-2.627,2.463-2.955,4.269,1.97,1.56,5.089-.082,7.059,1.4,3.448,1.56,6.649,3.53,10.507,3.776a6,6,0,0,1,0,4.761c-.246-1.642,1.724-4.186-.9-4.761-1.478.328-2.955-.739-4.1,0a25.71,25.71,0,0,0-12.724-5.007c-1.231.575-2.709,1.067-3.448,2.627l1.4,1.4c5.089,1.56,11.164,2.052,15.761,3.776l.493,1.888c.493-1.313-2.134-2.216-3.612-2.627-4.761-1.4-10.507-.985-14.365-4.022-2.381-.082-5.254,2.216-7.306-.246-1.149.493-2.134,0-3.2.739,1.806,3.2,4.761,6.485,5.007,10.671l1.4,3.283c-.246-1.642-2.3-3.448-3.858-1.642l-.493.493-7.73-12.327c.246-2.134-.493-4.351.657-6.4-2.3-.082-4.351,1.642-6.4,3.119.246-5.336,10.671-12.477.9-15.843-3.283,1.4-6.239,4.351-10.261,3.53-1.806-.985-3.612-1.888-5.5-2.873l-.493.739c3.448,12.477,7.88,24.79,10.261,37.432l-.9-1.149L64.157,38.055a6.161,6.161,0,0,1-3.2-4.761,2.063,2.063,0,0,1,.9-2.134c-1.229-6.403-3.859-12.555-4.759-18.716,2.709,5.336,3.858,11.738,5.91,17.567,2.627.082,3.037,3.2,5.254,4.022,1.806.328,3.037,2.134,5.254,1.642,2.052-2.216,5.582-3.119,5.5-6.649-1.4-1.56-4.1,1.642-4.6-1.642v-.985c.657.575.493,1.642,1.4,2.134a4.771,4.771,0,0,0,2.955-1.4l.493.493,2.709-3.283c-.328-.739-1.478-2.216-2.3-.985,0-.328-.328-.985-.9-.739-1.724.493-4.1-1.4-5.007.985,0-1.313.9-1.56,1.806-1.642,3.283-1.149,6.157,3.283,8.209.493-4.022-1.4-3.2-7.142-5.91-9.933h-.9a75.17831,75.17831,0,0,0-4.773,12.071c.493.575.9-.246,1.4-.246l.246,1.149c.328-.082-1.4.082-1.806-.246a33.77705,33.77705,0,0,1,5.5-13.545C80.821,13.757,79.918,18.764,82.627,21.72Z"/><path class="b" d="M107.5,23.115v.99c-7.059,8.45-14.444,16-21.671,24.375l.246.246,21.917-24.134h.9c1.97,2.955,6.977,4.6,5.254,8.537-9.686,6.157-19.455,12.313-29.633,17.813v-.246l-1.56.493L97.482,18.847a3.484,3.484,0,0,1,2.712-1.642C103.396,17.78,104.873,21.227,107.5,23.115Z"/><path class="a" d="M101.344,20.735c-.9-.739-1.724.246-2.545.493.657-1.149,1.4-.985,2.545-.985Z"/><path class="a" d="M99.784,24.1l1.56-.493C101.015,24.428,100.523,23.935,99.784,24.1Z"/><path class="b" d="M93.135,25.495c-.493,3.283-2.545,6.485-3.858,9.686-2.709.575-5.336-.739-7.552-2.627l-.9.985c-.9,0-.985-1.149-1.56-1.642,1.149-.821-.082-2.381.246-3.776l3.448-4.269C86.404,23.935,90.426,23.114,93.135,25.495Z"/><path class="a" d="M112.097,31.652a1.758,1.758,0,0,0-1.56-1.642l-1.56.246C110.209,28.613,111.851,30.092,112.097,31.652Z"/><path class="b" d="M66.046,33.047a5.591,5.591,0,0,1,.246,3.283,2.958,2.958,0,0,1-3.448,0c-.575-1.4-1.56-2.873-.9-4.515C63.255,30.257,65.471,31.652,66.046,33.047Z"/><path class="b" d="M80.821,36.167c.493-.328.246-.985.246-1.4.657-.246.821.739,1.4.739l.246-1.149c.575.082.9.739,1.4,1.149v.739c-.246,0-.575-.082-.657.246,0,.328.493.575.657.985.985-.082,1.149-1.067,2.3-.739.328-.739-.821-1.067-1.4-1.149l3.2.985-1.806.246c.493.575,1.149.575,1.56.985-.493.985-.493,2.216-1.4,3.119a17.91715,17.91715,0,0,1-4.761-3.776c-2.873,2.134-6.157,4.761-10.015,4.022-1.806-.821-3.612-2.216-5.254-3.119l.9-3.283,5.5,2.381a25.98509,25.98509,0,0,0,5.501-4.511C79.918,32.883,80,34.853,80.821,36.167Z"/><path class="a" d="M110.209,33.787l-1.149-.493c.985,0,2.3,0,2.709-.985C111.933,33.294,110.948,33.54,110.209,33.787Z"/><path class="b" d="M109.306,48.484c-2.955,3.694-6.485,8.537-12.067,7.8-.9-2.134-2.381-.821-3.858-.493-1.724-1.888-7.388-.328-5.5-4.515l.9-1.642L102,41.584C104.38,44.129,111.112,42.897,109.306,48.484Z"/><path class="a" d="M107.004,47.577c-2.381,1.149-4.1-2.052-6.4-2.627Z"/><path class="a" d="M104.299,51.599c-1.724-.082-2.381-1.642-3.448-2.873Z"/><path class="a" d="M96.336,48.972l2.3,2.381Z"/><path class="b" d="M95.678,62.68a14.91782,14.91782,0,0,1,1.149,4.269c.082.985-1.4,1.642-2.545,1.4-2.381-4.186-5.336-8.045-7.306-12.313l.493-1.149C92.478,54.308,92.806,59.972,95.678,62.68Z"/><path class="a" d="M138.939,61.039v.493c-7.142,3.2-15.268,4.515-22.328,8.291v1.4c-11.738,4.022-23.477,8.045-35.3,12.067-4.679.575-9.6-.575-12.313-4.515,5.664,5.664,15.022,3.776,21.178.493.575-1.313,2.052,0,2.955-.739,2.545-1.4,5.5-1.56,7.716-3.283a14.553,14.553,0,0,0,7.716-2.873c-2.955-.821-7.059,0-8.865-2.873,6.649,4.6,13.791-.328,20.029-2.134.821-.985,3.448-.493,4.761-1.888C129.501,64.405,134.26,62.106,138.939,61.039Z"/><path class="a" d="M120.962,65.8l.41-.985v.493Z"/><path class="a" d="M94.284,75.24l-2.955,2.624c.985-1.806,4.1-3.448,3.858-6.4C95.844,72.777,94.612,74.009,94.284,75.24Z"/><path class="a" d="M99.537,72.449l.9,1.149Z"/></svg>